<svg width="34" height="34" viewBox="0 0 34 34" fill="none" xmlns="http://www.w3.org/2000/svg">
<path d="M16.8752 16.9999C16.8752 14.2181 19.1303 11.9629 21.9122 11.9629C24.694 11.9629 26.9491 14.2181 26.9491 16.9999C26.9491 19.7818 24.694 22.0369 21.9122 22.0369C19.1303 22.0369 16.8752 19.7818 16.8752 16.9999Z" fill="#1ABCFE"/>
<path d="M6.79999 27.0741C6.79999 24.2923 9.05512 22.0371 11.837 22.0371H16.8739V27.0741C16.8739 29.856 14.6188 32.1112 11.837 32.1112C9.05512 32.1112 6.79999 29.856 6.79999 27.0741Z" fill="#0ACF83"/>
<path d="M16.8752 1.88892V11.9629H21.9122C24.694 11.9629 26.9491 9.70781 26.9491 6.92594C26.9491 4.14407 24.694 1.88892 21.9122 1.88892H16.8752Z" fill="#FF7262"/>
<path d="M6.79999 6.92594C6.79999 9.70781 9.05512 11.9629 11.837 11.9629H16.8739V1.88892H11.837C9.05512 1.88892 6.79999 4.14407 6.79999 6.92594Z" fill="#F24E1E"/>
<path d="M6.79999 16.9999C6.79999 19.7818 9.05512 22.0369 11.837 22.0369H16.8739V11.9629H11.837C9.05512 11.9629 6.79999 14.2181 6.79999 16.9999Z" fill="#A259FF"/>
</svg>
